<svg id="visual" viewBox="0 0 960 540" width="960" height="540" xmlns="http://www.w3.org/2000/svg" xmlns:xlink="http://www.w3.org/1999/xlink" version="1.1"><path d="M0 87L14.5 111.3C29 135.7 58 184.3 87.2 192.5C116.3 200.7 145.7 168.3 174.8 156.7C204 145 233 154 262 162.2C291 170.3 320 177.7 349 189.3C378 201 407 217 436.2 221.5C465.3 226 494.7 219 523.8 215.5C553 212 582 212 611 209.2C640 206.3 669 200.7 698 194.3C727 188 756 181 785.2 168.5C814.3 156 843.7 138 872.8 130.8C902 123.7 931 127.3 945.5 129.2L960 131L960 0L945.5 0C931 0 902 0 872.8 0C843.7 0 814.3 0 785.2 0C756 0 727 0 698 0C669 0 640 0 611 0C582 0 553 0 523.8 0C494.7 0 465.3 0 436.2 0C407 0 378 0 349 0C320 0 291 0 262 0C233 0 204 0 174.8 0C145.7 0 116.3 0 87.2 0C58 0 29 0 14.5 0L0 0Z" fill="#6198ff"></path><path d="M0 131L14.5 153.5C29 176 58 221 87.2 229C116.3 237 145.7 208 174.8 205.2C204 202.3 233 225.7 262 232.8C291 240 320 231 349 234.7C378 238.3 407 254.7 436.2 258.3C465.3 262 494.7 253 523.8 258.3C553 263.7 582 283.3 611 289.7C640 296 669 289 698 278.3C727 267.7 756 253.3 785.2 240.7C814.3 228 843.7 217 872.8 208.8C902 200.7 931 195.3 945.5 192.7L960 190L960 129L945.5 127.2C931 125.3 902 121.7 872.8 128.8C843.7 136 814.3 154 785.2 166.5C756 179 727 186 698 192.3C669 198.7 640 204.3 611 207.2C582 210 553 210 523.8 213.5C494.7 217 465.3 224 436.2 219.5C407 215 378 199 349 187.3C320 175.7 291 168.3 262 160.2C233 152 204 143 174.8 154.7C145.7 166.3 116.3 198.7 87.2 190.5C58 182.3 29 133.7 14.5 109.3L0 85Z" fill="#3c80ff"></path><path d="M0 287L14.5 309.5C29 332 58 377 87.2 380.7C116.3 384.3 145.7 346.7 174.8 326.8C204 307 233 305 262 305C291 305 320 307 349 313.3C378 319.7 407 330.3 436.2 337.5C465.3 344.7 494.7 348.3 523.8 353.8C553 359.3 582 366.7 611 367.5C640 368.3 669 362.7 698 353.7C727 344.7 756 332.3 785.2 330.7C814.3 329 843.7 338 872.8 340.7C902 343.3 931 339.7 945.5 337.8L960 336L960 188L945.5 190.7C931 193.3 902 198.7 872.8 206.8C843.7 215 814.3 226 785.2 238.7C756 251.3 727 265.7 698 276.3C669 287 640 294 611 287.7C582 281.3 553 261.7 523.8 256.3C494.7 251 465.3 260 436.2 256.3C407 252.7 378 236.3 349 232.7C320 229 291 238 262 230.8C233 223.7 204 200.3 174.8 203.2C145.7 206 116.3 235 87.2 227C58 219 29 174 14.5 151.5L0 129Z" fill="#0066ff"></path><path d="M0 476L14.5 480.5C29 485 58 494 87.2 486.8C116.3 479.7 145.7 456.3 174.8 455.5C204 454.7 233 476.3 262 480.8C291 485.3 320 472.7 349 473.5C378 474.3 407 488.7 436.2 484.2C465.3 479.7 494.7 456.3 523.8 448.3C553 440.3 582 447.7 611 453C640 458.3 669 461.7 698 462.5C727 463.3 756 461.7 785.2 466.2C814.3 470.7 843.7 481.3 872.8 487.7C902 494 931 496 945.5 497L960 498L960 334L945.5 335.8C931 337.7 902 341.3 872.8 338.7C843.7 336 814.3 327 785.2 328.7C756 330.3 727 342.7 698 351.7C669 360.7 640 366.3 611 365.5C582 364.7 553 357.3 523.8 351.8C494.7 346.3 465.3 342.7 436.2 335.5C407 328.3 378 317.7 349 311.3C320 305 291 303 262 303C233 303 204 305 174.8 324.8C145.7 344.7 116.3 382.3 87.2 378.7C58 375 29 330 14.5 307.5L0 285Z" fill="#0059dd"></path><path d="M0 541L14.5 541C29 541 58 541 87.2 541C116.3 541 145.7 541 174.8 541C204 541 233 541 262 541C291 541 320 541 349 541C378 541 407 541 436.2 541C465.3 541 494.7 541 523.8 541C553 541 582 541 611 541C640 541 669 541 698 541C727 541 756 541 785.2 541C814.3 541 843.7 541 872.8 541C902 541 931 541 945.5 541L960 541L960 496L945.5 495C931 494 902 492 872.8 485.7C843.7 479.3 814.3 468.7 785.2 464.2C756 459.7 727 461.3 698 460.5C669 459.7 640 456.3 611 451C582 445.7 553 438.3 523.8 446.3C494.7 454.3 465.3 477.7 436.2 482.2C407 486.7 378 472.3 349 471.5C320 470.7 291 483.3 262 478.8C233 474.3 204 452.7 174.8 453.5C145.7 454.3 116.3 477.7 87.2 484.8C58 492 29 483 14.5 478.5L0 474Z" fill="#004cbb"></path></svg>