<svg xmlns="http://www.w3.org/2000/svg" version="1.1" xmlns:xlink="http://www.w3.org/1999/xlink" xmlns:svgjs="http://svgjs.com/svgjs" width="512" height="512" x="0" y="0" viewBox="0 0 64 64" style="enable-background:new 0 0 512 512" xml:space="preserve" class=""><g><g xmlns="http://www.w3.org/2000/svg" id="Flat"><g id="Color_copy" data-name="Color copy"><g><g><path d="m3 11h54v46h-54z" fill="#e9f1f2" data-original="#e9f1f2"></path><path d="m57 49v8h-54v-46h11v16a22 22 0 0 0 22 22z" fill="#d0d8da" data-original="#d0d8da" class=""></path><path d="m3 11h23v14h-23z" fill="#57b7eb" data-original="#57b7eb"></path><path d="m3 3h16v8h-16z" fill="#f8664f" data-original="#f8664f"></path><path d="m19 3h38v8h-38z" fill="#d0d8da" data-original="#d0d8da" class=""></path><path d="m3 25h23v8h-23z" fill="#f9e109" data-original="#f9e109" class=""></path><path d="m26 11h31v22h-31z" fill="#84d2f4" data-original="#84d2f4" class=""></path><g><path d="m41 25h4a3 3 0 0 1 3 3v5a0 0 0 0 1 0 0h-10a0 0 0 0 1 0 0v-5a3 3 0 0 1 3-3z" fill="#f8664f" data-original="#f8664f"></path><path d="m48 31v2h-10v-5a3 3 0 0 1 3-3h3.21a2.948 2.948 0 0 1 -4.21.22v.78a5 5 0 0 0 5 5z" fill="#cc5144" data-original="#cc5144"></path><path d="m43 28a2 2 0 0 1 -2-2v-4h4v4a2 2 0 0 1 -2 2z" fill="#fcbc04" data-original="#fcbc04"></path><path d="m42.7 25.91a2.939 2.939 0 0 0 2.04 1.07 2 2 0 0 1 -3.74-.98v-4h4v1a3 3 0 0 1 -2.3 2.91z" fill="#e59730" data-original="#e59730"></path><path d="m40 15h3a3 3 0 0 1 3 3v1a0 0 0 0 1 0 0h-6a0 0 0 0 1 0 0v-4a0 0 0 0 1 0 0z" fill="#4891d3" data-original="#4891d3"></path><path d="m43 25a3 3 0 0 1 -3-3v-3h6v3a3 3 0 0 1 -3 3z" fill="#f9e109" data-original="#f9e109" class=""></path><path d="m45.24 23.98a2.929 2.929 0 0 1 -2.24 1.02 3 3 0 0 1 -3-3v-3h2v2a3 3 0 0 0 3 3 .974.974 0 0 0 .24-.02z" fill="#fcbc04" data-original="#fcbc04"></path><path d="m46 18v1h-6v-4h1v1a2.006 2.006 0 0 0 2 2z" fill="#2d72bc" data-original="#2d72bc"></path></g><path d="m9 37h13v6h-13z" fill="#f9e109" data-original="#f9e109" class=""></path><path d="m52 9h-28a2 2 0 0 1 -2-2 2 2 0 0 1 2-2h28a2 2 0 0 1 2 2 2 2 0 0 1 -2 2z" fill="#93999a" data-original="#93999a"></path><path d="m14.83 33h-11.83v-8h11v2a22.011 22.011 0 0 0 .83 6z" fill="#fcbc04" data-original="#fcbc04"></path><path d="m20.9 43h-11.9v-6h7.4a22.116 22.116 0 0 0 4.5 6z" fill="#fcbc04" data-original="#fcbc04"></path><path d="m3 11h11v14h-11z" fill="#4891d3" data-original="#4891d3"></path><path d="m12 21v-6l6 3z" fill="#f8664f" data-original="#f8664f"></path><path d="m14 16v4l-2 1v-6z" fill="#cc5144" data-original="#cc5144"></path><path d="m3 3h11v8h-11z" fill="#cc5144" data-original="#cc5144"></path><circle cx="7" cy="7" fill="#2d72bc" r="1" data-original="#2d72bc"></circle><circle cx="11" cy="7" fill="#2d72bc" r="1" data-original="#2d72bc"></circle><circle cx="15" cy="7" fill="#4891d3" r="1" data-original="#4891d3"></circle><path d="m35 8h-10a1 1 0 0 1 0-2h10a1 1 0 0 1 0 2z" fill="#57b7eb" data-original="#57b7eb"></path><path d="m52 8h-12a1 1 0 0 1 0-2h12a1 1 0 0 1 0 2z" fill="#57b7eb" data-original="#57b7eb"></path><path d="m3 28h23v2h-23z" fill="#f8664f" data-original="#f8664f"></path><path d="m24 48h-12a1 1 0 0 1 0-2h12a1 1 0 0 1 0 2z" fill="#4891d3" data-original="#4891d3"></path><path d="m18 52h-11a1 1 0 0 1 0-2h11a1 1 0 0 1 0 2z" fill="#4891d3" data-original="#4891d3"></path><g fill="#57b7eb"><path d="m49 40h-13a1 1 0 0 1 0-2h13a1 1 0 0 1 0 2z" fill="#57b7eb" data-original="#57b7eb"></path><path d="m48 44h-15a1 1 0 0 1 0-2h15a1 1 0 0 1 0 2z" fill="#57b7eb" data-original="#57b7eb"></path><path d="m47 48h-14a1 1 0 0 1 0-2h14a1 1 0 0 1 0 2z" fill="#57b7eb" data-original="#57b7eb"></path></g><path d="m39 52h-6a1 1 0 0 1 0-2h6a1 1 0 0 1 0 2z" fill="#4891d3" data-original="#4891d3"></path><path d="m32 33h-2v-3a1 1 0 0 1 .293-.707l1.879-1.879 1.414 1.414-1.586 1.586z" fill="#656b76" data-original="#656b76"></path><path d="m31.879 29.121a2 2 0 0 0 2.828 0l.707-.707a2 2 0 0 0 0-2.828 2 2 0 0 0 -2.828 0l-.707.707a2 2 0 0 0 0 2.828z" fill="#d0d8da" data-original="#d0d8da" class=""></path><path d="m35.41 28.41-.7.71a2 2 0 0 1 -3.14-2.41 1.7 1.7 0 0 0 .31.41 2 2 0 0 0 2.83 0l.7-.71a1.7 1.7 0 0 0 .31-.41 1.96 1.96 0 0 1 -.31 2.41z" fill="#93999a" data-original="#93999a"></path><path d="m14.2 30h-11.2v-2h11.02c.03.67.09 1.34.18 2z" fill="#cc5144" data-original="#cc5144"></path><path d="m9 31a1 1 0 0 1 -1-1v-2a1 1 0 0 1 2 0v2a1 1 0 0 1 -1 1z" fill="#f8664f" data-original="#f8664f"></path></g><g><path d="m48.211 26.767h8v25h-8z" fill="#4891d3" transform="matrix(.966 .259 -.259 .966 11.942 -12.175)" data-original="#4891d3"></path><path d="m51.964 23.261h8v4h-8z" fill="#d0d8da" transform="matrix(.966 .259 -.259 .966 8.445 -13.624)" data-original="#d0d8da" class=""></path><path d="m58.034 17.533a4 4 0 0 0 -4.9 2.829l-.517 1.932 7.727 2.07.518-1.932a4 4 0 0 0 -2.828-4.899z" fill="#f9e109" data-original="#f9e109" class=""></path><path d="m46.387 61-1.275-10.694 7.727 2.07z" fill="#f9e109" data-original="#f9e109" class=""></path><path d="m50.259 55.826-4.637-1.243.765 6.417z" fill="#93999a" data-original="#93999a"></path><g><path d="m59.31 28.23-6.47 24.15-4.1-1.1c.07-.12.12-.23.18-.35a56.473 56.473 0 0 0 3.71-9.96l3.63-13.56z" fill="#2d72bc" data-original="#2d72bc"></path><path d="m60.35 24.36-1.04 3.87-3.05-.82 1.03-3.87z" fill="#93999a" data-original="#93999a"></path><path d="m60.86 22.43-.51 1.93-3.06-.82.57-2.11a3.985 3.985 0 0 0 -1.21-4.03 4.343 4.343 0 0 1 1.38.13 4 4 0 0 1 2.83 4.9z" fill="#fcbc04" data-original="#fcbc04"></path><path d="m52.84 52.38-2.58 3.45-3.87 5.17-.55-4.56c.33-.51.64-1.03.95-1.55.7-1.18 1.35-2.38 1.95-3.61z" fill="#fcbc04" data-original="#fcbc04"></path><path d="m50.26 55.83-3.87 5.17-.55-4.56c.33-.51.64-1.03.95-1.55z" fill="#656b76" data-original="#656b76"></path></g></g></g></g></g></g></svg>