<svg xmlns="http://www.w3.org/2000/svg" aria-hidden="true" data-name="Layer 1" viewBox="0 0 14 14" role="img"><path d="M12.57 2.16h-1.91L10.13.48A.7.7 0 009.46 0H4.53a.7.7 0 00-.66.48l-.53 1.68H1.43a.7.7 0 100 1.39h11.14a.7.7 0 100-1.39zM5 1.39h4l.22.7h-4.4zm1.3 9.48V6a.7.7 0 10-1.39 0v4.88a.7.7 0 001.39 0zm2.79 0V6A.7.7 0 107.7 6v4.88a.7.7 0 001.39 0z"></path><path d="M11.59 5a.7.7 0 00-.76.63l-.58 7h-6.5l-.58-7A.7.7 0 002.41 5a.69.69 0 00-.63.75l.63 7.66a.71.71 0 00.7.64h7.78a.7.7 0 00.69-.64l.64-7.66a.69.69 0 00-.63-.75z"></path></svg>