<svg xmlns="http://www.w3.org/2000/svg" version="1.1" xmlns:xlink="http://www.w3.org/1999/xlink" xmlns:svgjs="http://svgjs.com/svgjs" width="512" height="512" x="0" y="0" viewBox="0 0 48 48" style="enable-background:new 0 0 512 512" xml:space="preserve" class=""><g><circle cx="24" cy="24" fill="#4a88da" r="20" data-original="#4a88da" class=""></circle><path d="m14.5 36.81 3.182-.354a3.006 3.006 0 0 0 1.789-.86l13.65-13.646 2.829-2.829a3 3 0 0 0 0-4.242l-2.829-2.829a3 3 0 0 0 -4.242 0l-2.829 2.829-13.65 13.646a3.006 3.006 0 0 0 -.86 1.79l-.35 3.185a3 3 0 0 0 2.977 3.332 3.168 3.168 0 0 0 .333-.022zm15.79-23.346a1 1 0 0 1 1.414 0l2.829 2.829a1 1 0 0 1 0 1.414l-2.122 2.122-4.243-4.243zm-17.112 20.254.353-3.182a1.01 1.01 0 0 1 .287-.6l12.939-12.936 4.243 4.243-12.939 12.939a1.016 1.016 0 0 1 -.6.287l-3.182.353a1 1 0 0 1 -1.1-1.1z" fill="#ffffff" data-original="#ffffff" class=""></path></g></svg>