<svg xmlns="http://www.w3.org/2000/svg" version="1.1" xmlns:xlink="http://www.w3.org/1999/xlink" xmlns:svgjs="http://svgjs.com/svgjs" width="512" height="512" x="0" y="0" viewBox="0 0 64 64" style="enable-background:new 0 0 512 512" xml:space="preserve" class=""><g><path d="m48.822 43.822 12.142 12.142a3.535 3.535 0 0 1 1.036 2.5 3.536 3.536 0 0 1 -3.536 3.536 3.535 3.535 0 0 1 -2.5-1.036l-11.964-11.964" fill="#5a5b5d" data-original="#5a5b5d"></path><path d="m48.822 43.822-2.411 2.59 11.553 11.552a3.494 3.494 0 0 0 4.018.681c0-.061.018-.119.018-.181a3.535 3.535 0 0 0 -1.036-2.5z" fill="#77787c" data-original="#77787c" class=""></path><path d="m60.964 55.964-8.964-8.964-5 5 8.964 8.964a3.536 3.536 0 1 0 5-5z" fill="#77787c" data-original="#77787c" class=""></path><path d="m17.6 21.649a3.841 3.841 0 0 0 2.124-2.559l.276-1.09a2 2 0 0 1 -2-2v-7a7 7 0 0 0 -7-7 7 7 0 0 0 -7 7v7a2 2 0 0 1 -2 2l.272 1.09a3.841 3.841 0 0 0 2.128 2.559z" fill="#936c42" data-original="#936c42"></path><path d="m18 16v-7a7 7 0 0 0 -5.5-6.835 7 7 0 0 0 -5.5 6.835v7a2 2 0 0 1 -2 2l.272 1.09a3.841 3.841 0 0 0 2.128 2.559h10.2a3.841 3.841 0 0 0 2.124-2.559l.276-1.09a2 2 0 0 1 -2-2z" fill="#ceae84" data-original="#ceae84"></path><path d="m6 11h-1a2 2 0 0 0 -2 2 2 2 0 0 0 2 2h1.416" fill="#ecb8ad" data-original="#ecb8ad"></path><path d="m16 11h1a2 2 0 0 1 2 2 2 2 0 0 1 -2 2h-1.416" fill="#ecb8ad" data-original="#ecb8ad"></path><path d="m9 17.583v2.417l-2.054.342a4.723 4.723 0 0 0 -3.946 4.658v7h16v-7a4.723 4.723 0 0 0 -3.946-4.658l-2.054-.342v-2.417z" fill="#4f61a6" data-original="#4f61a6"></path><path d="m15.054 20.342-2.054-.342v-2.417h-2v2.417l-2.054.342a4.723 4.723 0 0 0 -3.946 4.658v7h14v-7a4.723 4.723 0 0 0 -3.946-4.658z" fill="#7383bc" data-original="#7383bc"></path><path d="m16 10v3a5 5 0 0 1 -5 5 5 5 0 0 1 -5-5v-3h1.838a4.387 4.387 0 0 0 4.162-3z" fill="#ecb8ad" data-original="#ecb8ad"></path><path d="m13 17.58v2.42l-2 4-2-4v-2.42z" fill="#ecb8ad" data-original="#ecb8ad"></path><path d="m9 18.584v1.416l2 4 2-4v-1.416a5.016 5.016 0 0 1 -4 0z" fill="#fde1d5" data-original="#fde1d5"></path><path d="m6.218 20.525.782 4.475 4-1-2-4z" fill="#223584" data-original="#223584"></path><path d="m15.782 20.525-.782 4.475-4-1 2-4z" fill="#223584" data-original="#223584"></path><path d="m14 28h2v4h-2z" fill="#17256b" data-original="#17256b"></path><path d="m6 28h2v4h-2z" fill="#17256b" data-original="#17256b"></path><path d="m7.838 10h-.838v3a4.984 4.984 0 0 0 4.5 4.95 4.984 4.984 0 0 0 4.5-4.95v-3l-4-3a4.387 4.387 0 0 1 -4.162 3z" fill="#fde1d5" data-original="#fde1d5"></path><path d="m54 17.584v2.416l3.039.38a5.664 5.664 0 0 1 4.961 5.62v6h-20v-6a5.664 5.664 0 0 1 4.961-5.62l3.039-.38v-2.416z" fill="#b4b5b9" data-original="#b4b5b9" class=""></path><path d="m57.039 20.38-3.039-.38v-2.416h-2v2.416l-3.039.38a5.664 5.664 0 0 0 -4.961 5.62v6h18v-6a5.664 5.664 0 0 0 -4.961-5.62z" fill="#dcdddf" data-original="#dcdddf" class=""></path><path d="m57.291 20.418-1.291 2.582v2l-4-1 2-4z" fill="#77787c" data-original="#77787c" class=""></path><path d="m46.709 20.418 1.291 2.582v2l4-1-2-4z" fill="#77787c" data-original="#77787c" class=""></path><path d="m45 28h2v4h-2z" fill="#5a5b5d" data-original="#5a5b5d"></path><circle cx="32" cy="33" fill="#9a9b9f" r="20" data-original="#9a9b9f" class=""></circle><path d="m32 13a19.9 19.9 0 0 0 -13.094 4.906 19.98 19.98 0 0 0 28.188 28.188 19.98 19.98 0 0 0 -15.094-33.094z" fill="#b4b5b9" data-original="#b4b5b9" class=""></path><circle cx="32" cy="33" fill="#ffffff" r="16" data-original="#ffffff"></circle><path d="m37.039 39.38-3.039-.38v-2.416h-4v2.416l-3.039.38a5.664 5.664 0 0 0 -4.961 5.62v.479a15.961 15.961 0 0 0 20 0v-.479a5.664 5.664 0 0 0 -4.961-5.62z" fill="#50bae3" data-original="#50bae3"></path><path d="m37.039 39.38-3.039-.38v-2.416h-2v2.416l-3.039.38a5.664 5.664 0 0 0 -4.961 5.62v1.842a15.938 15.938 0 0 0 18-1.363v-.479a5.664 5.664 0 0 0 -4.961-5.62z" fill="#b5deeb" data-original="#b5deeb"></path><path d="m57 28h2v4h-2z" fill="#5a5b5d" data-original="#5a5b5d"></path><path d="m34 36.58v2.42l-2 4-2-4v-2.42z" fill="#ecb8ad" data-original="#ecb8ad"></path><path d="m30 37.584v1.416l2 4 2-4v-1.416a5.016 5.016 0 0 1 -4 0z" fill="#fde1d5" data-original="#fde1d5"></path><path d="m25 30.269v-4.269a5 5 0 0 1 5-5h3a3 3 0 0 1 3 3 3 3 0 0 1 3 3v3.27" fill="#5a5b5d" data-original="#5a5b5d"></path><path d="m28 26v4.269h11v-3.269a3 3 0 0 0 -3-3 3 3 0 0 0 -3-3 5 5 0 0 0 -5 5z" fill="#77787c" data-original="#77787c" class=""></path><g fill="#ecb8ad"><path d="m27 30h-1a2 2 0 0 0 -2 2 2 2 0 0 0 2 2h1.416" fill="#ecb8ad" data-original="#ecb8ad"></path><path d="m37 30h1a2 2 0 0 1 2 2 2 2 0 0 1 -2 2h-1.416" fill="#ecb8ad" data-original="#ecb8ad"></path><path d="m37 29v3a5 5 0 0 1 -5 5 5 5 0 0 1 -5-5v-3h1.838a4.387 4.387 0 0 0 4.162-3z" fill="#ecb8ad" data-original="#ecb8ad"></path></g><path d="m28.838 29h-.838v3a4.984 4.984 0 0 0 4.5 4.95 4.984 4.984 0 0 0 4.5-4.95v-3l-4-3a4.387 4.387 0 0 1 -4.162 3z" fill="#fde1d5" data-original="#fde1d5"></path><path d="m37.291 39.418-1.291 2.582v2l-4-1 2-4z" fill="#4197cd" data-original="#4197cd"></path><path d="m26.709 39.418 1.291 2.582v2l4-1-2-4z" fill="#4197cd" data-original="#4197cd"></path><path d="m45 11.268v-2.268a7 7 0 0 1 7-7 7 7 0 0 1 7 7v2.271z" fill="#5a5b5d" data-original="#5a5b5d"></path><path d="m59 9a7 7 0 0 0 -5.5-6.835 7 7 0 0 0 -5.5 6.835v2.268h11z" fill="#77787c" data-original="#77787c" class=""></path><path d="m54 17.58v2.42l-2 4-2-4v-2.42z" fill="#ecb8ad" data-original="#ecb8ad"></path><path d="m50 18.584v1.416l2 4 2-4v-1.416a5.016 5.016 0 0 1 -4 0z" fill="#fde1d5" data-original="#fde1d5"></path><path d="m47 11h-1a2 2 0 0 0 -2 2 2 2 0 0 0 2 2h1.416" fill="#ecb8ad" data-original="#ecb8ad"></path><path d="m57 11h1a2 2 0 0 1 2 2 2 2 0 0 1 -2 2h-1.416" fill="#ecb8ad" data-original="#ecb8ad"></path><path d="m47 11.236a5.231 5.231 0 0 1 .553-2.342 1.617 1.617 0 0 1 1.447-.894 1.617 1.617 0 0 1 1.447.894l.106.212a1.617 1.617 0 0 0 1.447.894 1.617 1.617 0 0 0 1.447-.894l.106-.212a1.617 1.617 0 0 1 1.447-.894 1.617 1.617 0 0 1 1.447.894 5.231 5.231 0 0 1 .553 2.342v1.764a5 5 0 0 1 -5 5 5 5 0 0 1 -5-5z" fill="#ecb8ad" data-original="#ecb8ad"></path><path d="m52.5 17.95a4.984 4.984 0 0 0 4.5-4.95v-1.764a5.231 5.231 0 0 0 -.553-2.342 1.618 1.618 0 0 0 -2.894 0l-.106.212a1.618 1.618 0 0 1 -2.894 0l-.106-.212a1.594 1.594 0 0 0 -2.447-.529v4.635a4.984 4.984 0 0 0 4.5 4.95z" fill="#fde1d5" data-original="#fde1d5"></path><path d="m25 47.371a15.836 15.836 0 0 0 2 .821v-1.192h-2z" fill="#29678c" data-original="#29678c"></path><path d="m37 48.192a15.836 15.836 0 0 0 2-.821v-.371h-2z" fill="#29678c" data-original="#29678c"></path><path d="m57.964 57.964a3.494 3.494 0 0 0 4.018.681c0-.061.018-.119.018-.181a3.535 3.535 0 0 0 -1.036-2.5l-8.964-8.964-2.5 2.5z" fill="#9a9b9f" data-original="#9a9b9f" class=""></path></g></svg>