<svg xmlns="http://www.w3.org/2000/svg" version="1.1" xmlns:xlink="http://www.w3.org/1999/xlink" xmlns:svgjs="http://svgjs.com/svgjs" width="512" height="512" x="0" y="0" viewBox="0 0 152 152" style="enable-background:new 0 0 512 512" xml:space="preserve" class=""><g><radialGradient id="radial-gradient" cx="76" cy="76" gradientUnits="userSpaceOnUse" r="76"><stop stop-opacity="1" stop-color="#ff6e40" offset="0"></stop><stop stop-opacity="1" stop-color="#3c65f5" offset="0.05019305019305019"></stop></radialGradient><g id="Layer_2" data-name="Layer 2"><g id="Circle"><g id="_21.Wattpad" data-name="21.Wattpad"><rect id="Background" fill="url(#radial-gradient)" height="152" rx="76" width="152" data-original="url(#radial-gradient)" class=""></rect><path id="Shade" d="m133.2 26c-11.08 20.34-26.75 41.32-46.33 60.9s-40.56 35.22-60.87 46.3q-1.91-1.66-3.71-3.46a76 76 0 1 1 107.45-107.48q1.8 1.8 3.46 3.74z" fill="#ffffff" opacity=".1" data-original="#ffffff" class=""></path><path id="Icon" d="m89.27 65.56c4.43-6.21 16.12-19.65 23.35-17.06a4.55 4.55 0 0 1 3.21 3.38c1 4.25-2.5 6.95-9 17.61-8 13-10.45 21.68-14 25.17-7 7.77-21.07 4.35-19.39-16.87-8.44 13.7-10.44 30.41-24.65 27.59-14.88-4-14.18-39.08-10.72-48.12a13.94 13.94 0 0 1 1.31-3.26c3.53-6.82 11.69-6.87 15.18-2.82s2.53 12.68 2 18.26c3.68-6.41 10.08-15.57 16-20.12 9.22-6.86 19.87-2.43 16.74 16.21z" fill="#f9f9f9" data-original="#f9f9f9" class=""></path></g></g></g></g></svg>