<svg xmlns="http://www.w3.org/2000/svg" version="1.1" xmlns:xlink="http://www.w3.org/1999/xlink" xmlns:svgjs="http://svgjs.com/svgjs" width="512" height="512" x="0" y="0" viewBox="0 0 480 480" style="enable-background:new 0 0 512 512" xml:space="preserve" class=""><g>
<path xmlns="http://www.w3.org/2000/svg" style="" d="M13.248,0h464v192h-464V0z" fill="#8ce2ff" data-original="#8ce2ff"></path>
<g xmlns="http://www.w3.org/2000/svg">
	<path style="" d="M253.248,40h176v16h-176V40z" fill="#565151" data-original="#565151"></path>
	<path style="" d="M277.248,88h176v16h-176V88z" fill="#565151" data-original="#565151"></path>
	<path style="" d="M245.248,136h176v16h-176V136z" fill="#565151" data-original="#565151"></path>
</g>
<path xmlns="http://www.w3.org/2000/svg" style="" d="M227.177,41.625L125.764,80h-9.551c15.622-8.265,21.585-27.629,13.32-43.251  s-27.629-21.585-43.251-13.32S64.697,51.058,72.962,66.68c3.003,5.676,7.644,10.317,13.32,13.32H69.118  C49.918,80,32.7,91.825,25.807,109.746L2.752,199.303l25.151,11.608L61.248,112v216.835c0,8.376,6.79,15.165,15.165,15.165h1.67  c8.376,0,15.165-6.79,15.165-15.165V216h16l1.671,113.059c0.123,8.287,6.875,14.941,15.164,14.941  c8.376,0,15.165-6.79,15.165-15.165V112l101.408-49.093L227.177,41.625z" fill="#fd614b" data-original="#fd614b" class=""></path>
<path xmlns="http://www.w3.org/2000/svg" style="" d="M13.248,0h464v16h-464V0z" fill="#565151" data-original="#565151"></path>
<path xmlns="http://www.w3.org/2000/svg" style="" d="M450.78,384.251c15.743-8.016,22.008-27.276,13.992-43.019  c-8.016-15.743-27.276-22.008-43.019-13.992c-15.743,8.016-22.008,27.276-13.992,43.019c3.125,6.138,8.148,11.103,14.321,14.157  c-14.227,2.014-24.809,14.179-24.834,28.547V480h80v-67.036C477.219,397.972,465.719,385.498,450.78,384.251z" fill="#fd614b" data-original="#fd614b" class=""></path>
<path xmlns="http://www.w3.org/2000/svg" style="" d="M322.78,384.251c15.743-8.016,22.008-27.276,13.992-43.019  c-8.016-15.743-27.276-22.008-43.019-13.992c-15.743,8.016-22.008,27.276-13.992,43.019c3.125,6.138,8.148,11.103,14.321,14.157  c-14.227,2.014-24.809,14.179-24.834,28.547V480h80v-67.036C349.219,397.972,337.719,385.498,322.78,384.251z" fill="#27ae60" data-original="#27ae60" class=""></path>
<path xmlns="http://www.w3.org/2000/svg" style="" d="M194.78,384.251c15.743-8.016,22.008-27.276,13.992-43.019  c-8.016-15.743-27.276-22.008-43.019-13.992s-22.008,27.276-13.992,43.019c3.125,6.138,8.148,11.103,14.321,14.157  c-14.227,2.014-24.809,14.179-24.834,28.547V480h80v-67.036C221.219,397.972,209.719,385.498,194.78,384.251L194.78,384.251z" fill="#fecd0d" data-original="#fecd0d"></path>
<path xmlns="http://www.w3.org/2000/svg" style="" d="M66.78,384.251c15.743-8.016,22.008-27.276,13.992-43.019c-8.016-15.743-27.276-22.008-43.019-13.992  s-22.008,27.276-13.992,43.019c3.125,6.138,8.148,11.103,14.321,14.157c-14.227,2.014-24.809,14.179-24.834,28.547V480h80v-67.036  C93.219,397.972,81.719,385.498,66.78,384.251z" fill="#8ce2ff" data-original="#8ce2ff"></path>
<g xmlns="http://www.w3.org/2000/svg">
</g>
<g xmlns="http://www.w3.org/2000/svg">
</g>
<g xmlns="http://www.w3.org/2000/svg">
</g>
<g xmlns="http://www.w3.org/2000/svg">
</g>
<g xmlns="http://www.w3.org/2000/svg">
</g>
<g xmlns="http://www.w3.org/2000/svg">
</g>
<g xmlns="http://www.w3.org/2000/svg">
</g>
<g xmlns="http://www.w3.org/2000/svg">
</g>
<g xmlns="http://www.w3.org/2000/svg">
</g>
<g xmlns="http://www.w3.org/2000/svg">
</g>
<g xmlns="http://www.w3.org/2000/svg">
</g>
<g xmlns="http://www.w3.org/2000/svg">
</g>
<g xmlns="http://www.w3.org/2000/svg">
</g>
<g xmlns="http://www.w3.org/2000/svg">
</g>
<g xmlns="http://www.w3.org/2000/svg">
</g>
</g></svg>