<svg xmlns="http://www.w3.org/2000/svg" version="1.1" xmlns:xlink="http://www.w3.org/1999/xlink" xmlns:svgjs="http://svgjs.com/svgjs" width="512" height="512" x="0" y="0" viewBox="0 0 512 512" style="enable-background:new 0 0 512 512" xml:space="preserve" class=""><g><g xmlns="http://www.w3.org/2000/svg"><g><path d="m361 90.002c-8.284 0-15 6.716-15 15v72h30v-72c0-8.284-6.716-15-15-15z" fill="#766e6e" data-original="#766e6e"></path><path d="m376 105.002c0-8.284-6.716-15-15-15v87h15z" fill="#5b5555" data-original="#5b5555"></path><path d="m406.909 243.215-72.258-30.968c-7.614-3.263-16.433.264-19.696 7.878s.264 16.433 7.878 19.696l49.248 21.107-80.452 64.362 18.741 23.426 100-80-.004-.005c1.869-1.492 3.412-3.447 4.42-5.799 3.264-7.616-.263-16.434-7.877-19.697z" fill="#766e6e" data-original="#766e6e"></path><path d="m406.909 243.215-45.909-19.676v32.639l11.081 4.749-11.081 8.866v38.419l49.371-39.496-.004-.005c1.869-1.492 3.412-3.447 4.42-5.799 3.263-7.616-.264-16.434-7.878-19.697z" fill="#5b5555" data-original="#5b5555"></path><path d="m420.989 352.005c-6.722 0-12.837-4.549-14.541-11.365l-37.159-148.638h-16.577l-37.16 148.638c-2.009 8.037-10.15 12.921-18.19 10.914-8.037-2.009-12.923-10.153-10.914-18.19l40-160c1.669-6.677 7.669-11.362 14.552-11.362h40c6.883 0 12.883 4.685 14.552 11.362l40 160c2.009 8.037-2.877 16.181-10.914 18.19-1.221.305-2.445.451-3.649.451z" fill="#968989" data-original="#968989"></path><path d="m295.467 150.005c-5.521 0-10.834-3.061-13.452-8.343-14.478-29.217-14.478-64.103 0-93.32 3.679-7.423 12.678-10.458 20.101-6.78s10.458 12.678 6.78 20.101c-10.345 20.876-10.345 45.803 0 66.68 3.678 7.423.643 16.422-6.78 20.101-2.14 1.059-4.412 1.561-6.649 1.561z" fill="#6cd8f8" data-original="#6cd8f8"></path><path d="m426.533 150.005c-2.238 0-4.508-.502-6.649-1.563-7.423-3.679-10.458-12.678-6.78-20.101 10.345-20.876 10.345-45.803 0-66.68-3.678-7.423-.643-16.422 6.78-20.101 7.42-3.678 16.421-.643 20.101 6.78 14.478 29.218 14.478 64.104 0 93.32-2.618 5.284-7.931 8.345-13.452 8.345z" fill="#3caaff" data-original="#3caaff" class=""></path><g><path d="m249.247 190.004c-4.978 0-9.846-2.476-12.699-6.997-33.74-53.462-33.74-122.55 0-176.011 4.421-7.006 13.686-9.101 20.69-4.68 7.006 4.421 9.101 13.685 4.68 20.69-27.601 43.734-27.601 100.253 0 143.989 4.421 7.006 2.326 16.269-4.68 20.69-2.485 1.57-5.255 2.319-7.991 2.319z" fill="#6cd8f8" data-original="#6cd8f8"></path></g><g><path d="m472.752 190.004c-2.737 0-5.506-.748-7.992-2.317-7.005-4.421-9.101-13.685-4.679-20.691 27.602-43.735 27.602-100.254 0-143.988-4.421-7.006-2.326-16.27 4.679-20.691 7.006-4.422 16.27-2.326 20.691 4.679 33.74 53.461 33.74 122.55 0 176.012-2.852 4.52-7.722 6.996-12.699 6.996z" fill="#3caaff" data-original="#3caaff" class=""></path></g><path d="m361 125.002c-16.542 0-30-13.458-30-30s13.458-30 30-30 30 13.458 30 30-13.458 30-30 30z" fill="#6cd8f8" data-original="#6cd8f8"></path><path d="m435.552 333.364-40-160c-1.669-6.677-7.669-11.362-14.552-11.362h-20v30h8.289l37.159 148.638c1.704 6.816 7.819 11.366 14.541 11.365 1.204 0 2.428-.146 3.649-.451 8.037-2.009 12.923-10.153 10.914-18.19z" fill="#766e6e" data-original="#766e6e"></path></g><path d="m271 512h-75c-8.284 0-15-6.716-15-15v-160c0-8.284 6.716-15 15-15h300c8.284 0 15 6.716 15 15v65z" fill="#d5e7fe" data-original="#d5e7fe"></path><path d="m361 65.002v60c16.542 0 30-13.458 30-30s-13.458-30-30-30z" fill="#3caaff" data-original="#3caaff" class=""></path><g><path d="m496 322h-135v190l135-40 15-70v-65c0-8.284-6.716-15-15-15z" fill="#b5dbff" data-original="#b5dbff"></path></g><path d="m286 402c-8.284 0-15 6.716-15 15v95h225c8.284 0 15-6.716 15-15v-95z" fill="#edf6ff" data-original="#edf6ff"></path><g><path d="m361 402v110h135c8.284 0 15-6.716 15-15v-95z" fill="#d5e7fe" data-original="#d5e7fe"></path></g><path d="m196 222h-180c-8.284 0-15 6.716-15 15v260c0 8.284 6.716 15 15 15h45l45-60 45 60h60v-275c0-8.284-6.716-15-15-15z" fill="#d5e7fe" data-original="#d5e7fe"></path><path d="m196 222h-90v210l45 80h60v-275c0-8.284-6.716-15-15-15z" fill="#b5dbff" data-original="#b5dbff"></path><g><path d="m151 512h-90v-95c0-8.284 6.716-15 15-15h60c8.284 0 15 6.716 15 15z" fill="#edf6ff" data-original="#edf6ff"></path><g><path d="m151 417c0-8.284-6.716-15-15-15h-30v110h45z" fill="#d5e7fe" data-original="#d5e7fe"></path></g><path d="m91 432h30v80h-30z" fill="#6cd8f8" data-original="#6cd8f8"></path></g><path d="m136 372h-60c-8.284 0-15-6.716-15-15s6.716-15 15-15h60c8.284 0 15 6.716 15 15s-6.716 15-15 15z" fill="#6cd8f8" data-original="#6cd8f8"></path><path d="m136 312h-60c-8.284 0-15-6.716-15-15s6.716-15 15-15h60c8.284 0 15 6.716 15 15s-6.716 15-15 15z" fill="#6cd8f8" data-original="#6cd8f8"></path><g><path d="m301 432h30v80h-30z" fill="#6cd8f8" data-original="#6cd8f8"></path><g fill="#3caaff"><path d="m361 432h30v80h-30z" fill="#3caaff" data-original="#3caaff" class=""></path><path d="m421 432h30v80h-30z" fill="#3caaff" data-original="#3caaff" class=""></path><path d="m496 512h-15v-80h30v65c0 8.284-6.716 15-15 15z" fill="#3caaff" data-original="#3caaff" class=""></path></g></g><g><g><path d="m106 432h15v80h-15z" fill="#3caaff" data-original="#3caaff" class=""></path></g></g><g fill="#3caaff"><path d="m136 342h-30v30h30c8.284 0 15-6.716 15-15s-6.716-15-15-15z" fill="#3caaff" data-original="#3caaff" class=""></path><path d="m151 297c0-8.284-6.716-15-15-15h-30v30h30c8.284 0 15-6.716 15-15z" fill="#3caaff" data-original="#3caaff" class=""></path></g></g></g></svg>