<svg xmlns="http://www.w3.org/2000/svg" version="1.1" xmlns:xlink="http://www.w3.org/1999/xlink" xmlns:svgjs="http://svgjs.com/svgjs" width="512" height="512" x="0" y="0" viewBox="0 0 512 512" style="enable-background:new 0 0 512 512" xml:space="preserve" class=""><g><ellipse cx="256" cy="256" fill="#77e041" rx="256.01" ry="256.01" transform="matrix(.707 -.707 .707 .707 -106.039 256)" data-original="#77e041" class=""></ellipse><path d="m503.63 321.07c-23.39 88.97-93.58 159.16-182.55 182.56-88.7-88.69-220.27-220.26-220.38-220.37-6.33-6.37-12.41-13.13-18.2-20.3l-.03-.03c-3.24-4.06-3.22-9.91.07-13.91 45.44-56.21 108.49-88.45 172.99-88.45h.94c56.52 0 111.91 24.74 155.36 68.7.06.06 40.58 40.58 91.8 91.8z" fill="#6bca3b" data-original="#6bca3b" class=""></path><path d="m306.61 256c0 27.91-22.7 50.61-50.61 50.61s-50.61-22.7-50.61-50.61 22.7-50.61 50.61-50.61 50.61 22.7 50.61 50.61zm122.94 6.93c-45.53 56.29-108.63 88.53-173.18 88.53-.13 0-.24-.01-.38 0-.13-.01-.25 0-.37 0-64.54 0-127.62-32.24-173.12-88.49l-.03-.03c-3.25-4.06-3.22-9.91.06-13.91 45.45-56.21 108.49-88.45 172.99-88.45h.94c64.52 0 127.57 32.23 173.06 88.5 3.25 3.94 3.28 9.79.03 13.85zm-94.11-6.93c0-43.79-35.64-79.41-79.44-79.41-43.79 0-79.41 35.62-79.41 79.41 0 43.8 35.62 79.44 79.41 79.44 43.8 0 79.44-35.64 79.44-79.44z" fill="#ffffff" data-original="#ffffff"></path><g fill="#e6ecff"><path d="m205.39 256c0 27.91 22.7 50.61 50.61 50.61h.02v-101.22c-.01 0-.01 0-.02 0-27.91 0-50.61 22.7-50.61 50.61z" fill="#e6ecff" data-original="#e6ecff"></path><path d="m255.53 160.57c-64.5 0-127.55 32.24-172.99 88.45-3.28 4-3.31 9.85-.06 13.91l.03.03c45.5 56.26 108.58 88.49 173.12 88.49.12 0 .24-.01.37 0h.02v-16.02c-.01 0-.01 0-.02 0-43.79 0-79.41-35.64-79.41-79.44 0-43.79 35.62-79.41 79.41-79.41h.02v-16.02c-.17.01-.33.01-.49.01z" fill="#e6ecff" data-original="#e6ecff"></path></g></g></svg>